<svg width="81" height="73" viewBox="0 0 81 73" fill="none" xmlns="http://www.w3.org/2000/svg">
<path d="M0.824 32.12C2.91467 32.0347 4.45067 31.5867 5.432 30.776C6.41333 29.9227 6.904 28.728 6.904 27.192C6.904 26.04 6.69067 23.7573 6.264 20.344C6.22133 20.0027 6.09333 18.9147 5.88 17.08C5.66667 15.2027 5.56 13.5173 5.56 12.024C5.56 8.39733 6.66933 5.58133 8.888 3.576C11.1067 1.528 14.072 0.503998 17.784 0.503998H22.392V9.464H19.896C18.5307 9.464 17.5493 9.76266 16.952 10.36C16.3547 10.9573 16.056 11.8747 16.056 13.112C16.056 14.0507 16.2267 16.184 16.568 19.512C16.952 23.6507 17.144 26.36 17.144 27.64C17.144 29.9867 16.568 31.928 15.416 33.464C14.3067 35 12.6 35.9813 10.296 36.408V36.536C12.6 37.0053 14.3067 38.008 15.416 39.544C16.568 41.0373 17.144 42.9787 17.144 45.368C17.144 46.648 16.952 49.3573 16.568 53.496C16.2267 56.7387 16.056 58.8507 16.056 59.832C16.056 61.0693 16.3547 61.9867 16.952 62.584C17.5493 63.224 18.5307 63.544 19.896 63.544H22.392V72.504H17.784C14.072 72.504 11.1067 71.48 8.888 69.432C6.66933 67.4267 5.56 64.5893 5.56 60.92C5.56 59.4267 5.66667 57.7627 5.88 55.928C6.09333 54.0507 6.22133 52.9413 6.264 52.6C6.69067 49.1867 6.904 46.904 6.904 45.752C6.904 44.3013 6.41333 43.1493 5.432 42.296C4.45067 41.4 2.91467 40.9093 0.824 40.824V32.12ZM80.1745 40.824C78.0838 40.9093 76.5478 41.4 75.5665 42.296C74.5852 43.1493 74.0945 44.3013 74.0945 45.752C74.0945 46.904 74.3078 49.1867 74.7345 52.6C74.7772 52.9413 74.9052 54.0507 75.1185 55.928C75.3318 57.7627 75.4385 59.4267 75.4385 60.92C75.4385 64.5893 74.3292 67.4267 72.1105 69.432C69.8918 71.48 66.9265 72.504 63.2145 72.504H58.6065V63.544H61.1025C62.4678 63.544 63.4492 63.224 64.0465 62.584C64.6438 61.9867 64.9425 61.0693 64.9425 59.832C64.9425 58.8507 64.7718 56.7387 64.4305 53.496C64.0465 49.3573 63.8545 46.648 63.8545 45.368C63.8545 42.9787 64.4092 41.0373 65.5185 39.544C66.6705 38.008 68.3985 37.0053 70.7025 36.536V36.408C68.3985 35.9813 66.6705 35 65.5185 33.464C64.4092 31.928 63.8545 29.9867 63.8545 27.64C63.8545 26.36 64.0465 23.6507 64.4305 19.512C64.7718 16.184 64.9425 14.0507 64.9425 13.112C64.9425 11.8747 64.6438 10.9573 64.0465 10.36C63.4492 9.76266 62.4678 9.464 61.1025 9.464H58.6065V0.503998H63.2145C66.9265 0.503998 69.8918 1.528 72.1105 3.576C74.3292 5.58133 75.4385 8.39733 75.4385 12.024C75.4385 13.5173 75.3318 15.2027 75.1185 17.08C74.9052 18.9147 74.7772 20.0027 74.7345 20.344C74.3078 23.7573 74.0945 26.04 74.0945 27.192C74.0945 28.728 74.5852 29.9227 75.5665 30.776C76.5478 31.5867 78.0838 32.0347 80.1745 32.12V40.824Z" fill="url(#paint0_linear_21_2)"/>
<defs>
<linearGradient id="paint0_linear_21_2" x1="42" y1="-15" x2="42" y2="99" gradientUnits="userSpaceOnUse">
<stop stop-color="#7900B1"/>
<stop offset="1" stop-color="#33004B" stop-opacity="0"/>
</linearGradient>
</defs>
</svg>
