<svg width="64" height="64" viewBox="0 0 64 64" fill="none" xmlns="http://www.w3.org/2000/svg">
<rect width="64" height="64" fill="#2C2C2C"/>
<path d="M18.457 29.66C19.339 29.624 19.987 29.435 20.401 29.093C20.815 28.733 21.022 28.229 21.022 27.581C21.022 27.095 20.932 26.132 20.752 24.692C20.734 24.548 20.68 24.089 20.59 23.315C20.5 22.523 20.455 21.812 20.455 21.182C20.455 19.652 20.923 18.464 21.859 17.618C22.795 16.754 24.046 16.322 25.612 16.322H27.556V20.102H26.503C25.927 20.102 25.513 20.228 25.261 20.48C25.009 20.732 24.883 21.119 24.883 21.641C24.883 22.037 24.955 22.937 25.099 24.341C25.261 26.087 25.342 27.23 25.342 27.77C25.342 28.76 25.099 29.579 24.613 30.227C24.145 30.875 23.425 31.289 22.453 31.469V31.523C23.425 31.721 24.145 32.144 24.613 32.792C25.099 33.422 25.342 34.241 25.342 35.249C25.342 35.789 25.261 36.932 25.099 38.678C24.955 40.046 24.883 40.937 24.883 41.351C24.883 41.873 25.009 42.26 25.261 42.512C25.513 42.782 25.927 42.917 26.503 42.917H27.556V46.697H25.612C24.046 46.697 22.795 46.265 21.859 45.401C20.923 44.555 20.455 43.358 20.455 41.81C20.455 41.18 20.5 40.478 20.59 39.704C20.68 38.912 20.734 38.444 20.752 38.3C20.932 36.86 21.022 35.897 21.022 35.411C21.022 34.799 20.815 34.313 20.401 33.953C19.987 33.575 19.339 33.368 18.457 33.332V29.66ZM46.2113 33.332C45.3293 33.368 44.6813 33.575 44.2673 33.953C43.8533 34.313 43.6463 34.799 43.6463 35.411C43.6463 35.897 43.7363 36.86 43.9163 38.3C43.9343 38.444 43.9883 38.912 44.0783 39.704C44.1683 40.478 44.2133 41.18 44.2133 41.81C44.2133 43.358 43.7453 44.555 42.8093 45.401C41.8733 46.265 40.6223 46.697 39.0563 46.697H37.1123V42.917H38.1653C38.7413 42.917 39.1553 42.782 39.4073 42.512C39.6593 42.26 39.7853 41.873 39.7853 41.351C39.7853 40.937 39.7133 40.046 39.5693 38.678C39.4073 36.932 39.3263 35.789 39.3263 35.249C39.3263 34.241 39.5603 33.422 40.0283 32.792C40.5143 32.144 41.2433 31.721 42.2153 31.523V31.469C41.2433 31.289 40.5143 30.875 40.0283 30.227C39.5603 29.579 39.3263 28.76 39.3263 27.77C39.3263 27.23 39.4073 26.087 39.5693 24.341C39.7133 22.937 39.7853 22.037 39.7853 21.641C39.7853 21.119 39.6593 20.732 39.4073 20.48C39.1553 20.228 38.7413 20.102 38.1653 20.102H37.1123V16.322H39.0563C40.6223 16.322 41.8733 16.754 42.8093 17.618C43.7453 18.464 44.2133 19.652 44.2133 21.182C44.2133 21.812 44.1683 22.523 44.0783 23.315C43.9883 24.089 43.9343 24.548 43.9163 24.692C43.7363 26.132 43.6463 27.095 43.6463 27.581C43.6463 28.229 43.8533 28.733 44.2673 29.093C44.6813 29.435 45.3293 29.624 46.2113 29.66V33.332Z" fill="#7900B1"/>
</svg>
